PathFileType	4	(X/Y/Z)	Patient4_TMGait_0pt4_02_right_44.trc.trc
DataRate	CameraRate	NumFrames	NumMarkers	Units	OrigDataRate	OrigDataStartFrame	OrigNumFrames
74.468085106383	74.468085106383	6	33	mm	74.468085106383	53	       141
Frame#	Time	Sacral			L.Shoulder			Chest			R.Shoulder			Neck			R.ASIS			L.ASIS			R.Thigh.Superior			R.Thigh.Lateral			R.Thigh.Inferior			R.Patella			L.Thigh.Superior			L.Thigh.Lateral			L.Thigh.Inferior			L.Patella			L.Shank.Superior			L.Shank.Lateral			L.Shank.Inferior			R.Shank.Superior			R.Shank.Lateral			R.Shank.Inferior			R.Heel			R.Midfoot.Superior			R.Midfoot.Lateral			R.Toe			L.Heel			L.Midfoot.Lateral			L.Midfoot.Superior			L.Toe			L.Elbow			L.Wrist			R.Elbow			R.Wrist			
		X1	Y1	Z1	X2	Y2	Z2	X3	Y3	Z3	X4	Y4	Z4	X5	Y5	Z5	X6	Y6	Z6	X7	Y7	Z7	X8	Y8	Z8	X9	Y9	Z9	X10	Y10	Z10	X11	Y11	Z11	X12	Y12	Z12	X13	Y13	Z13	X14	Y14	Z14	X15	Y15	Z15	X16	Y16	Z16	X17	Y17	Z17	X18	Y18	Z18	X19	Y19	Z19	X20	Y20	Z20	X21	Y21	Z21	X22	Y22	Z22	X23	Y23	Z23	X24	Y24	Z24	X25	Y25	Z25	X26	Y26	Z26	X27	Y27	Z27	X28	Y28	Z28	X29	Y29	Z29	X30	Y30	Z30	X31	Y31	Z31	X32	Y32	Z32	X33	Y33	Z33	

53	58.678285714286	839.951417983149	1010.747604942046	576.133359685196	996.062041425170	1435.705465503870	373.669802681777	1120.040029245224	1369.438866936299	520.160801293623	1062.091518133359	1444.120514384002	703.891116755367	999.167692658860	1499.570712095707	531.175024327986	1079.047744204699	942.371840279625	664.640514853775	1033.650627457617	970.938042046295	394.454275141677	1106.654672755892	738.749454118530	630.375089621133	1025.068098603806	632.361001552603	696.465512766900	1092.642127619577	578.433113319079	610.044373820291	1088.513832732594	491.668292984443	615.735422768197	1121.501983817454	791.516152502584	410.150334768216	1073.758932970151	665.506104814293	330.164821797866	1184.354416512594	606.760945843954	378.789130554425	1203.437146536467	524.120654443412	367.805108550956	1152.766418324605	450.922208448072	359.214285113897	1025.619310756932	374.848051592282	314.806682054237	1054.380731172990	243.952814083044	359.645522310015	1058.799099368372	403.441647342842	623.724974889323	987.381853824855	300.870000446752	687.246355366061	1022.720091461126	205.742364043239	620.311748862398	884.452285806192	43.710674926618	590.216968780376	1055.165225447712	96.508431215851	626.705064811979	967.604486798874	36.590962300502	665.532721302768	1175.926083623932	43.639295462021	655.077664561483	895.303504194489	124.006043825850	402.772351437857	956.434529104965	103.332089867192	315.644147561130	1055.525441042487	141.119650871314	332.639559685072	1159.738304684139	60.284910664469	289.840082029634	909.124881078231	1087.843251410326	277.117517261097	929.478353877670	826.823273949799	274.574116451476	1142.267778827949	1121.034484283458	850.315183704089	1383.550414112910	1080.697604021166	779.750648044575	
54	58.691714285714	838.973590506950	1011.760111357717	577.785490768843	994.884270362340	1436.089084732209	374.672392745057	1120.133608151541	1369.244111181882	519.795802225115	1064.388345791344	1444.227839213914	704.097964039418	999.644738493984	1499.676565557065	532.140119607986	1078.256314550704	942.054154312006	664.457572807006	1031.380432318210	971.394178418381	394.574948309306	1103.516928980028	738.150390142346	629.788152691401	1021.754284067828	632.312181164299	696.797767818968	1088.098875884216	577.921997240988	609.894526839889	1083.420417196657	491.478718130787	615.837340956818	1118.927859005774	792.477950057370	410.635739960575	1072.160054363146	666.585886516966	330.066301893102	1182.168240848070	607.992875342965	379.922042931838	1202.674665221568	527.068106207298	368.380192806080	1155.594589383399	453.320955606938	358.775656344042	1033.577921612444	370.200906744647	313.240690312115	1070.313408298686	240.670650614002	357.104549671410	1053.665173344112	403.317089864514	623.952690842580	982.245569437900	300.782934328280	687.721005794583	1017.365189116266	205.680682935707	620.529906775532	879.036655439273	43.684500332819	590.308985251570	1049.738857011459	96.457276371469	626.760986333464	962.168172928347	36.523072935130	665.528549983399	1170.486560457706	43.609749005488	655.034556010894	919.166129605655	110.392059525919	399.151226924358	981.431832644935	94.648670830597	311.746099707050	1078.000721103848	138.290343161923	329.124398800336	1187.087406348265	64.760239184555	285.400128566132	900.207540207865	1090.090437180752	279.929226706703	915.675618057219	828.651273595789	279.964780906889	1151.776588517535	1123.620838113536	849.865672726837	1393.132109739795	1096.880779699701	775.119984571975	
55	58.705142857143	837.973361132881	1012.654481899699	579.193155166151	993.748686267910	1436.389536731562	375.508031959308	1120.207202761593	1368.924939544383	519.287158620921	1066.603928269574	1444.166311384673	704.138387416809	1000.097995791275	1499.678183603720	532.926805987111	1077.438246719271	941.680477831564	664.141931249668	1029.214708819989	971.630653297187	394.526424216165	1100.402818872540	737.530881348583	629.216571040320	1018.467033160610	632.226761988254	697.113319351229	1083.619271018818	577.391383868482	609.774124765052	1078.384981412819	491.267161625352	615.983305002728	1116.074596130414	792.834350522077	411.140437412639	1070.190763057645	667.244125534831	329.806121786582	1179.288174280378	608.496792784138	381.227066796061	1201.139849585125	529.465207530950	369.134619580846	1157.748151113911	455.435460537187	358.471337775011	1041.505146112705	365.457285531947	311.421400886454	1086.036254442079	237.803219966613	354.633681356477	1048.579097778719	403.166142937279	624.194629763387	977.135750981471	300.672812215533	688.204157259701	1012.025504315804	205.598393668660	620.750758632541	873.620669095298	43.653207065614	590.406283537224	1044.311499804943	96.398059649133	626.808885802754	956.731189139196	36.453656169794	665.521210434843	1165.049026811891	43.574038907867	654.985283789961	943.298381152494	97.777560774471	395.194992681446	1006.754404913803	86.778640885563	307.830936805215	1100.446676216148	136.082378712865	325.861733363072	1214.078190936492	69.858866208933	281.875256896691	891.630162386395	1092.367494156806	282.704453581123	902.678161439497	830.621624550094	285.163283631451	1160.952263990043	1126.067676778722	849.041663638155	1401.610779049616	1112.548235509672	770.321064674172	
56	58.718571428571	836.967866590210	1013.414757845381	580.347210536950	992.665483699026	1436.610097062243	376.158579291094	1120.246676452167	1368.496386563742	518.643637520372	1068.684350306673	1443.950338168695	704.010366071192	1000.511484004211	1499.588105864517	533.515333687070	1076.606647351730	941.272575098287	663.722428669433	1027.177247594722	971.651881099860	394.326992771865	1097.364770514352	736.894625299750	628.703244182766	1015.217897047108	632.110613859490	697.406858658346	1079.239235637939	576.841529342541	609.694162268908	1073.432711396078	491.031336071125	616.158117893430	1112.998678442201	792.625269321668	411.658675963575	1067.893302925501	667.517257927760	329.378331576900	1175.838726775890	608.346935203933	382.580805121022	1198.942153592576	531.341377636813	369.996267018632	1159.271636189930	457.289923138387	358.288090641748	1049.317870149099	360.808747271061	309.402697581058	1101.277594808053	235.507022989453	352.332842912919	1043.559637899195	402.990492550573	624.434990463790	972.066897329143	300.548267323341	688.675117385822	1006.712281511431	205.499372613802	620.963936595052	868.204296570951	43.620804254945	590.504154618752	1038.885837588444	96.336048682004	626.851754275540	951.296066147248	36.387583501146	665.514625293122	1159.616390162037	43.533739887290	654.937849651134	967.209819550852	86.551718145199	391.082526830311	1031.935104697360	79.961241487878	304.091417128855	1122.470580647471	134.619927401118	322.999325005315	1240.247753201760	75.509485231826	279.477138230739	883.471253955551	1094.627913591074	285.429986806077	890.476912271036	832.665348120952	290.113166162020	1169.752654725751	1128.357799525627	847.832295401730	1409.041785158018	1127.545552446841	765.407278828254	
57	58.732000000000	835.979948078789	1014.034144439302	581.243001256241	991.641110876930	1436.759925208448	376.608257112777	1120.237961410034	1367.984724476956	517.875913573396	1070.576926272330	1443.608553503947	703.713466660053	1000.868187408116	1499.425176486587	533.891515360260	1075.780424228178	940.855512944542	663.223455051112	1025.287453171713	971.478312536855	393.994600555073	1094.444851425277	736.245563979568	628.275334336911	1012.008777458026	631.975276211963	697.667720833097	1074.976879197884	576.274910862560	609.656928283856	1068.574323464632	490.773597997065	616.342310557781	1109.772169861631	791.917137022143	412.163533529488	1065.308183641225	667.445247962190	328.793945275506	1171.964861214892	607.637601038986	383.844090487080	1196.200799747334	532.734071969486	370.883569894537	1160.215280356701	458.901531622326	358.200344618294	1056.883796492473	356.407944223495	307.275565158379	1115.757700239084	233.859620095077	350.288890992369	1038.610430017500	402.795979680175	624.656355199862	967.042092617785	300.421669141392	689.113007797525	1001.430104666677	205.390606919012	621.160172040776	862.787160853329	43.591629888141	590.597616656807	1033.462927754021	96.275737985756	626.891066641430	945.864052998047	36.328876773942	665.510758977808	1154.190717647724	43.491207929203	654.899537351366	990.381462961858	76.966325451776	387.032865367448	1056.457789672533	74.311345359732	300.723515173097	1143.662031670463	133.923030896888	320.649476929430	1265.138916415048	81.544212609826	278.307801760620	875.806570688586	1096.829869902912	288.071939124616	879.079663955598	834.724024088861	294.762043697197	1178.124067002040	1130.484658401246	846.226368214585	1415.488816851463	1141.733659980944	760.427136540113	
58	58.745428571429	835.036025984527	1014.513436386852	581.879567908853	990.676127916727	1436.851218628275	376.844741475617	1120.167646335353	1367.423680342502	516.995138650676	1072.234276005717	1443.178777111946	703.249121453344	1001.149639437072	1499.211317500756	534.046676106720	1074.982999805537	940.454061354268	662.661423731893	1023.561626842686	971.141620764385	393.544111770471	1091.671937118616	735.588219879139	627.940986382697	1008.834725218088	631.835991532433	697.881678483033	1070.834749653008	575.695928908969	609.657590488515	1063.809852978185	490.499718498012	616.516966196918	1106.484359189708	790.796797906828	412.607663287694	1062.476296266715	667.062516162255	328.085245000694	1167.825993738104	606.471476125045	384.881152261201	1193.044233415799	533.680172826176	371.714450428129	1160.631801476578	460.273505851753	358.175786078530	1064.024699724041	352.357877676152	305.167208270515	1129.196745126227	232.854539281460	348.572848585197	1033.723691384734	402.591546841165	624.843480175410	962.054954388466	300.307504677494	689.500161943689	996.178026502143	205.281028126598	621.332926825931	857.368743665673	43.569707355731	590.682699419126	1028.042905938009	96.220804264064	626.927741192258	940.435203692911	36.280189867539	665.509722438433	1148.772551097774	43.448891555946	654.875328961154	1012.288086537210	69.128396692780	383.294577638663	1079.769165006081	69.822585008061	297.912767439417	1163.599654213949	133.909560412437	318.882146760238	1288.299106077087	87.707001034062	278.340505060061	868.706622729338	1098.934553466123	290.578123934816	868.513851092766	836.746114684602	299.061075762299	1186.002866688600	1132.447019887817	844.216458070042	1421.020985181254	1154.991595693163	755.424975143694	
